#N canvas 328 231 848 481 10;
#X text 495 110 buffer name;
#X text 495 132 grain size (init window);
#X obj 87 251 phasor~;
#X obj 87 36 loadbang;
#X obj 87 118 samplerate~;
#X obj 174 163 array size \$2;
#X obj 323 35 loadbang;
#N canvas 295 320 450 278 (subpatch) 0;
#X array \$0-win 2048 float 0;
#X coords 0 1 2047 0 314 100 1 0 0;
#X restore 478 279 graph;
#X obj 323 191 until;
#X obj 323 212 f;
#X obj 350 212 + 1;
#X msg 362 191 0;
#X obj 323 285 * 3.14159;
#X obj 323 403 tabwrite \$0-win;
#X obj 323 326 cos;
#X obj 323 306 * 2;
#X obj 323 382 + 0.5;
#X obj 323 361 * -0.5;
#X obj 323 82 f \$3;
#X obj 393 191 array size \$0-win;
#X obj 186 312 tabplay~ \$0-win;
#X obj 159 36 inlet;
#X obj 87 312 tabread~ \$2;
#X obj 87 179 /;
#X obj 159 235 /;
#X obj 87 389 outlet~;
#X obj 87 291 *~;
#X obj 87 342 *~;
#X text 494 86 args:;
#X obj 159 214 t a b;
#X obj 323 244 t a a;
#X obj 87 97 t a a;
#X obj 159 57 route float update winsize;
#X obj 323 106 sel 0;
#X msg 323 127 2048;
#X obj 323 264 /;
#X obj 323 148 t a a b a;
#X connect 2 0 26 0;
#X connect 3 0 31 0;
#X connect 4 0 23 0;
#X connect 5 0 23 1;
#X connect 5 0 24 1;
#X connect 5 0 26 1;
#X connect 6 0 18 0;
#X connect 8 0 9 0;
#X connect 9 0 10 0;
#X connect 9 0 30 0;
#X connect 10 0 9 1;
#X connect 11 0 9 1;
#X connect 12 0 15 0;
#X connect 14 0 17 0;
#X connect 15 0 14 0;
#X connect 16 0 13 0;
#X connect 17 0 16 0;
#X connect 18 0 33 0;
#X connect 20 0 27 1;
#X connect 21 0 32 0;
#X connect 22 0 27 0;
#X connect 23 0 2 0;
#X connect 24 0 2 1;
#X connect 26 0 22 0;
#X connect 27 0 25 0;
#X connect 29 0 24 0;
#X connect 29 1 20 0;
#X connect 30 0 35 0;
#X connect 30 1 13 1;
#X connect 31 0 4 0;
#X connect 31 1 5 0;
#X connect 32 0 29 0;
#X connect 32 1 31 0;
#X connect 32 2 18 0;
#X connect 33 0 34 0;
#X connect 33 1 36 0;
#X connect 34 0 36 0;
#X connect 35 0 12 0;
#X connect 36 0 8 0;
#X connect 36 1 35 1;
#X connect 36 2 11 0;
#X connect 36 3 19 0;
