#N canvas 201 100 1356 715 10;
#X obj 47 72 inlet~;
#X obj 80 234 route freeze;
#X obj 80 292 sel 1 0;
#X msg 80 334 stop;
#X obj 190 232 bang~;
#X obj 205 313 f;
#X obj 250 271 == 0;
#X obj 205 292 spigot 1;
#X obj 108 393 sel 0;
#X msg 99 435 start \$1;
#X obj 99 372 f;
#X msg 108 414 0;
#X msg 190 540 next \$1;
#N canvas 44 75 1741 918 (subpatch) 0;
#X array \$0-freeze 8192 float 0;
#X coords 0 1 8191 -1 800 140 1 0 0;
#X restore 394 350 graph;
#X obj 190 603 outlet~;
#X obj 285 100 loadbang;
#X floatatom 285 313 5 0 0 0 - - - 0;
#X obj 190 461 f;
#X obj 232 334 mod;
#X obj 190 519 -;
#X obj 205 414 spigot 1;
#X msg 250 393 1;
#X msg 219 372 0;
#X obj 80 255 t a a a;
#X obj 190 582 *~ 0.5;
#X obj 232 313 + 512;
#X obj 312 289 array size \$0-freeze;
#X obj 47 456 tabwrite~ \$0-freeze;
#X obj 190 482 t a b;
#X obj 190 261 t b b;
#X obj 205 436 - 2048;
#X obj 217 503 random;
#X obj 285 121 t b b;
#X obj 190 561 clone grain_play.cl 4 \$0-freeze;
#X msg 385 242 set \$1;
#X obj 285 163 sel 0;
#X obj 285 216 f;
#X obj 285 237 * 4;
#X obj 385 158 sel 0;
#X msg 385 179 2048;
#X obj 385 200 t a;
#X obj 385 221 / 4;
#X obj 285 258 t f f;
#X obj 285 142 f \$2;
#X obj 385 137 f \$1;
#X msg 285 529 all winsize \$1 \, all update;
#X obj 250 372 del 2048 1 samp;
#X obj 285 476 t b;
#X obj 285 497 f;
#X obj 250 436 * 2048;
#X obj 385 263 block~ 512 1;
#X connect 0 0 27 0;
#X connect 0 1 1 0;
#X connect 1 0 23 0;
#X connect 2 0 3 0;
#X connect 2 0 22 0;
#X connect 2 1 10 0;
#X connect 2 1 46 0;
#X connect 3 0 27 0;
#X connect 4 0 29 0;
#X connect 5 0 8 0;
#X connect 5 0 10 1;
#X connect 5 0 20 0;
#X connect 5 0 25 0;
#X connect 6 0 7 1;
#X connect 7 0 5 0;
#X connect 8 0 11 0;
#X connect 9 0 27 0;
#X connect 10 0 9 0;
#X connect 11 0 9 0;
#X connect 12 0 33 0;
#X connect 15 0 32 0;
#X connect 16 0 18 1;
#X connect 16 0 47 0;
#X connect 17 0 28 0;
#X connect 18 0 5 1;
#X connect 19 0 12 0;
#X connect 20 0 30 0;
#X connect 21 0 20 1;
#X connect 22 0 20 1;
#X connect 23 0 2 0;
#X connect 23 1 49 0;
#X connect 23 2 6 0;
#X connect 24 0 14 0;
#X connect 25 0 18 0;
#X connect 28 0 19 0;
#X connect 28 1 31 0;
#X connect 29 0 17 0;
#X connect 29 1 7 0;
#X connect 30 0 17 1;
#X connect 31 0 19 1;
#X connect 32 0 43 0;
#X connect 32 1 44 0;
#X connect 33 0 24 0;
#X connect 34 0 50 0;
#X connect 35 0 36 0;
#X connect 35 1 42 0;
#X connect 36 0 37 0;
#X connect 37 0 42 0;
#X connect 38 0 39 0;
#X connect 38 1 40 0;
#X connect 39 0 40 0;
#X connect 40 0 36 1;
#X connect 40 0 41 0;
#X connect 40 0 30 1;
#X connect 40 0 46 1;
#X connect 40 0 48 1;
#X connect 40 0 49 1;
#X connect 41 0 34 0;
#X connect 41 0 25 1;
#X connect 42 0 16 0;
#X connect 42 1 26 0;
#X connect 43 0 35 0;
#X connect 44 0 38 0;
#X connect 45 0 33 0;
#X connect 46 0 21 0;
#X connect 47 0 48 0;
#X connect 48 0 45 0;
#X connect 49 0 31 1;
